<?xml version="1.0" encoding="UTF-8"?>
<!DOCTYPE svg PUBLIC "-//W3C//DTD SVG 1.1//EN" "http://www.w3.org/Graphics/SVG/1.1/DTD/svg11.dtd">
<!-- Creator: CorelDRAW -->
<svg xmlns="http://www.w3.org/2000/svg" xml:space="preserve" width="2in" height="1in" version="1.1" style="shape-rendering:geometricPrecision; text-rendering:geometricPrecision; image-rendering:optimizeQuality; fill-rule:evenodd; clip-rule:evenodd"
viewBox="0 0 2000 1000"
 xmlns:xlink="http://www.w3.org/1999/xlink"
 xmlns:xodm="http://www.corel.com/coreldraw/odm/2003">
 <defs>
  <style type="text/css">
   <![CDATA[
    .str0 {stroke:#FEFEFE;stroke-width:7.87;stroke-miterlimit:22.9256}
    .fil0 {fill:#FEFEFE}
   ]]>
  </style>
 </defs>
 <g id="Layer_x0020_1">
  <metadata id="CorelCorpID_0Corel-Layer"/>
  <g id="_2211019848784">
   <path class="fil0 str0" d="M910.6 561.81l-118.57 -241.44 51.56 2.22 91.44 183.54c2.58,13.04 -2.5,21.2 -8.06,31.58l-16.36 24.11zm-278.85 -348.56l51.22 0.11 111.83 228.24c19.42,38.97 37.59,76.32 56.43,113.69 16.91,33.56 53.31,72.43 5.28,112.25 -38.84,-66.91 -78.6,-151.39 -112.49,-221.82 -37.1,-77.09 -78.13,-151.38 -112.28,-232.47zm462.21 89.33c-17.51,-18.62 -5.84,-26.54 -6.43,-59.68 2.02,27.31 -4.51,36.45 -26.21,31.55l-91.81 176.44c-20.57,-16.75 -36.18,-61.03 -49.71,-87.32 -15.38,-29.89 -29.94,-62.52 -47.26,-93.12l-109.48 -1.57c-8.67,-24.19 -39.9,-95.24 -58.96,-106.19l-155.69 -0.4 228.31 461.51c23.98,48.39 52.31,113.3 79.8,155.72 5.42,-4.46 2.31,-0.41 8.69,-9.54l113.5 -226.63c18.93,-37.83 113.29,-215.63 115.25,-240.77z"/>
   <path class="fil0 str0" d="M1256.95 212.59l44.19 -0.46c-0.27,3.6 -259.14,545.85 -298.06,601.55l-48 0.52 301.87 -601.61zm-195.64 61.86c21.7,4.9 28.24,-4.24 26.21,-31.55 0.59,33.14 -11.08,41.06 6.43,59.68 21.04,-16.27 39.85,-62.33 47.82,-89.41l52.8 -0.12c-10.1,38.86 -131.75,268.33 -159.12,322.5 -179.49,355.24 -209.69,341.89 2.29,326.16l346.45 -698.2 -272.27 -0.76c-13.49,38.22 -40.5,70.85 -50.61,111.71z"/>
  </g>
 </g>
</svg>
